<svg xmlns="http://www.w3.org/2000/svg" viewBox="0 0 201.89 68.23"><title>Asset 2</title><g id="Layer_2" data-name="Layer 2"><g id="Layer_1-2" data-name="Layer 1"><path d="M47.13,34A13.16,13.16,0,1,0,34,47.13,13.16,13.16,0,0,0,47.13,34ZM43,34a9,9,0,1,1-9-9,9,9,0,0,1,9,9Z"/><path d="M57.26,34A23.29,23.29,0,1,0,34,57.26,23.29,23.29,0,0,0,57.26,34Zm-4.19,0A19.1,19.1,0,1,1,34,14.87,19.1,19.1,0,0,1,53.07,34Z"/><path d="M67.93,34a34,34,0,1,0-34,34,34,34,0,0,0,34-34Zm-4.42,0A29.55,29.55,0,1,1,34,4.42,29.55,29.55,0,0,1,63.52,34Z"/><path d="M107.72,39.5V35.64H93.11V60.2h4.5V50h8.74V46.19H97.61V39.5Zm27.16,8.4a12.48,12.48,0,0,0-12.56-12.77A12.8,12.8,0,1,0,134.89,47.9Zm-4.93,0c0,5-3.13,9-7.63,9s-7.76-3.81-7.76-9S117.83,39,122.33,39,130,43,130,47.9Zm28.3,11.36-.34-4.33a13.82,13.82,0,0,1-7.07,1.84c-4.63,0-8.44-3.77-8.44-9,0-5.53,3.77-8.7,8-8.7a14.11,14.11,0,0,1,7.54,1.84l.34-4.33a16.34,16.34,0,0,0-7.59-1.37A12.83,12.83,0,0,0,137.47,48c0,8.1,6.73,12.6,13.11,12.6a17.64,17.64,0,0,0,7.67-1.37Zm23.44-7.8V35.64h-4.5V51.29c0,4.37-3,5.49-5.79,5.49-2.36,0-5.44-1.07-5.44-5.44V35.64h-4.5V52.36c0,5.36,4.76,8.27,9.81,8.27,6,0,10.41-2.79,10.41-9.17Zm19.84,1.93c0-3.77-3.34-5.4-6.34-7.16-1.67-1-4.37-2-4.37-4.11a3.07,3.07,0,0,1,3.3-3c2.27,0,3.69.3,6.77,2.1l.34-4.54a16.28,16.28,0,0,0-7.29-1.41c-4.93,0-8.06,3.17-8.06,7.16s3.51,5.66,6.64,7.5c1.54.9,4.2,1.89,4.2,3.86,0,1.8-1.71,3.13-3.77,3.13-2.27,0-3.69-.47-6.56-2.14l-.64,4.46a16.28,16.28,0,0,0,7.37,1.54c4,0,8.4-2.44,8.4-7.33Z"/><path d="M109.49,29.5v-10h-7.13v3.12.53V27a8.71,8.71,0,0,1-2.95.48,6.78,6.78,0,0,1-7.1-7.17c0-4.22,2.85-7,6.58-7A12.13,12.13,0,0,1,108.77,15l.27-3.5a14.14,14.14,0,0,0-6.65-1.3A10.25,10.25,0,0,0,91.9,20.31c0,5.76,4,10.25,10.9,10.25a18.27,18.27,0,0,0,3.87-.34c.89-.17,1.54-.38,2.81-.72Zm19.5.72a71.62,71.62,0,0,1-5.69-8.43,5.71,5.71,0,0,0,4.15-5.49c0-4.22-3.29-5.9-7.41-5.9-2,0-3.91.14-5.86.27V30.22.6v-8h1.47a84.87,84.87,0,0,0,5.07,8Zm-5.45-14c0,1.92-.86,3.05-3.94,3.05h-1.82V13.59l1.78,0c2.74-.07,4,.89,4,2.64Zm26.61,4.18a10,10,0,0,0-10-10.22A10.1,10.1,0,0,0,130,20.42a10.1,10.1,0,1,0,20.19,0Zm-3.94,0c0,4-2.5,7.17-6.1,7.17s-6.21-3.05-6.21-7.17,2.61-7.13,6.21-7.13,6.1,3.19,6.1,7.13Zm23.44,2.85V10.58H166V23.09c0,3.5-2.37,4.39-4.63,4.39-1.89,0-4.35-.86-4.35-4.35V10.58h-3.6V23.95c0,4.29,3.8,6.62,7.85,6.62,4.83,0,8.33-2.23,8.33-7.34Zm17-6.58c0-4.42-3.05-6.21-6.62-6.21-2.23,0-4.42,0-6.65.21V30.22H177V23c.93.07,2,.07,2.37.07,3.57,0,7.3-2.57,7.3-6.45Zm-3.94,0c0,2.64-1.82,3.43-4.22,3.43H177V13.49l2.2,0c2.47,0,3.53,1,3.53,3.19Zm19.16,13.58V27.14h-8.78V21.79h7V18.7h-7v-5h8.12V10.58H189.52V30.22Z"/><polygon points="79.3 0.5 79.3 68.23 80.97 68.23 80.97 0.5 79.3 0.5 79.3 0.5"/></g></g></svg>